<?xml version="1.0" encoding="utf-8"?>
<!-- Generator: neu.Draw for iPad by neu.Pen LLC  -->
<!DOCTYPE svg PUBLIC "-//W3C//DTD SVG 1.1//EN" "http://www.w3.org/Graphics/SVG/1.1/DTD/svg11.dtd">
<svg version="1.1" xmlns="http://www.w3.org/2000/svg" xmlns:xlink="http://www.w3.org/1999/xlink" 
    x="0px" y="0px"
    width="382.310608" height="382.166840"
    viewBox="0 0 382.310608 382.166840"
    xml:space="preserve">
<path fill="rgb(255,255,255)" stroke="rgb(0,0,0)" stroke-width="14.787671" stroke-linecap="round" stroke-linejoin="round" stroke-miterlimit="10"
d="M7.39,7.39C7.39,7.39,7.39,7.39,7.39,7.39L374.92,7.39C374.92,7.39,374.92,7.39,374.92,7.39L374.92,374.77C374.92,374.77,374.92,374.77,374.92,374.77L7.39,374.77C7.39,374.77,7.39,374.77,7.39,374.77L7.39,7.39Z"/>
<path fill="rgb(0,0,0)" stroke="rgb(0,0,0)" stroke-width="14.787671" stroke-linecap="round" stroke-linejoin="round" stroke-miterlimit="10"
d="M41.34,106.60C41.34,94.94,50.80,85.48,62.46,85.48L319.85,85.48C331.51,85.48,340.97,94.94,340.97,106.60L340.97,275.56C340.97,287.23,331.51,296.68,319.85,296.68L62.46,296.68C50.80,296.68,41.34,287.23,41.34,275.56L41.34,106.60Z"/>
<path fill="rgb(255,255,255)" stroke="rgb(0,0,0)" stroke-width="16.787670" stroke-linecap="round" stroke-linejoin="round" stroke-miterlimit="10"
d="M83.49,136.31C83.49,124.65,92.95,115.19,104.61,115.19L277.70,115.19C289.36,115.19,298.82,124.65,298.82,136.31L298.82,245.85C298.82,257.52,289.36,266.97,277.70,266.97L104.61,266.97C92.95,266.97,83.49,257.52,83.49,245.85L83.49,136.31Z"/>
<path fill="rgb(255,255,255)" stroke="rgb(255,255,255)" stroke-width="14.787671" stroke-linecap="round" stroke-linejoin="round" stroke-miterlimit="10"
d="M132.32,50.27C132.32,50.27,132.32,50.27,132.32,50.27L249.99,50.27C249.99,50.27,249.99,50.27,249.99,50.27L249.99,331.89C249.99,331.89,249.99,331.89,249.99,331.89L132.32,331.89C132.32,331.89,132.32,331.89,132.32,331.89L132.32,50.27Z"/>
<path fill="rgb(255,87,29)" stroke="none" stroke-opacity="0.000000" stroke-width="16.787670" stroke-linecap="round" stroke-linejoin="round" stroke-miterlimit="10"
d="M144.49,144.89C170.26,119.38,212.05,119.38,237.82,144.89C263.59,170.40,263.59,211.76,237.82,237.27C212.05,262.78,170.26,262.78,144.49,237.27C118.72,211.76,118.72,170.40,144.49,144.89Z"/>
</svg>
